<mxfile host="Electron" agent="Mozilla/5.0 (X11; Linux x86_64) AppleWebKit/537.36 (KHTML, like Gecko) draw.io/26.0.9 Chrome/128.0.6613.186 Electron/32.2.5 Safari/537.36" version="26.0.9">
  <diagram name="Страница — 1" id="Og2O6v1_8cmMjE4YKY-o">
    <mxGraphModel dx="819" dy="555" grid="1" gridSize="10" guides="1" tooltips="1" connect="1" arrows="1" fold="1" page="1" pageScale="1" pageWidth="827" pageHeight="1169" math="0" shadow="0">
      <root>
        <mxCell id="0" />
        <mxCell id="1" parent="0" />
        <mxCell id="f9OrkrOD7GsaYfjVP4bd-9" value="" style="group" parent="1" vertex="1" connectable="0">
          <mxGeometry x="104" y="304.5" width="101" height="53" as="geometry" />
        </mxCell>
        <mxCell id="f9OrkrOD7GsaYfjVP4bd-2" value="" style="shape=mxgraph.cisco.switches.workgroup_switch;sketch=0;html=1;pointerEvents=1;dashed=0;fillColor=#036897;strokeColor=#ffffff;strokeWidth=2;verticalLabelPosition=bottom;verticalAlign=top;align=center;outlineConnect=0;" parent="f9OrkrOD7GsaYfjVP4bd-9" vertex="1">
          <mxGeometry y="-1" width="101" height="50" as="geometry" />
        </mxCell>
        <mxCell id="f9OrkrOD7GsaYfjVP4bd-8" value="&lt;b&gt;&lt;font color=&quot;#ffffff&quot; style=&quot;font-size: 14px;&quot;&gt;S2&lt;/font&gt;&lt;/b&gt;" style="text;html=1;align=center;verticalAlign=middle;whiteSpace=wrap;rounded=0;" parent="f9OrkrOD7GsaYfjVP4bd-9" vertex="1">
          <mxGeometry x="10" y="20" width="60" height="30" as="geometry" />
        </mxCell>
        <mxCell id="2piaRRsvQxlYRXwN0LXb-4" value="&lt;b&gt;&lt;font style=&quot;font-size: 14px;&quot;&gt;F0/5&lt;/font&gt;&lt;/b&gt;" style="text;html=1;align=center;verticalAlign=middle;whiteSpace=wrap;rounded=0;" parent="1" vertex="1">
          <mxGeometry x="367" y="301" width="60" height="30" as="geometry" />
        </mxCell>
        <mxCell id="f9OrkrOD7GsaYfjVP4bd-16" value="&lt;b&gt;&lt;font style=&quot;font-size: 14px;&quot;&gt;G/0/0/1&lt;/font&gt;&lt;/b&gt;" style="text;html=1;align=center;verticalAlign=middle;whiteSpace=wrap;rounded=0;" parent="1" vertex="1">
          <mxGeometry x="396" y="318.5" width="60" height="34" as="geometry" />
        </mxCell>
        <mxCell id="2piaRRsvQxlYRXwN0LXb-20" value="&lt;b&gt;&lt;font style=&quot;font-size: 14px;&quot;&gt;F0/1&lt;/font&gt;&lt;/b&gt;" style="text;html=1;align=center;verticalAlign=middle;whiteSpace=wrap;rounded=0;" parent="1" vertex="1">
          <mxGeometry x="190" y="304.5" width="60" height="30" as="geometry" />
        </mxCell>
        <mxCell id="2piaRRsvQxlYRXwN0LXb-24" value="" style="endArrow=none;html=1;rounded=0;strokeWidth=3;exitX=0;exitY=0.5;exitDx=0;exitDy=0;exitPerimeter=0;entryX=1;entryY=0.5;entryDx=0;entryDy=0;entryPerimeter=0;" parent="1" source="FiaJFKsjIP4AauUNehaB-4" target="f9OrkrOD7GsaYfjVP4bd-3" edge="1">
          <mxGeometry width="50" height="50" relative="1" as="geometry">
            <mxPoint x="431" y="220" as="sourcePoint" />
            <mxPoint x="480" y="160" as="targetPoint" />
          </mxGeometry>
        </mxCell>
        <mxCell id="2piaRRsvQxlYRXwN0LXb-27" value="" style="endArrow=none;html=1;rounded=0;strokeWidth=3;exitX=0.98;exitY=0.5;exitDx=0;exitDy=0;exitPerimeter=0;entryX=0;entryY=0.5;entryDx=0;entryDy=0;entryPerimeter=0;" parent="1" source="2piaRRsvQxlYRXwN0LXb-2" target="f9OrkrOD7GsaYfjVP4bd-3" edge="1">
          <mxGeometry width="50" height="50" relative="1" as="geometry">
            <mxPoint x="387" y="576" as="sourcePoint" />
            <mxPoint x="437" y="506" as="targetPoint" />
          </mxGeometry>
        </mxCell>
        <mxCell id="f9OrkrOD7GsaYfjVP4bd-12" value="&lt;b&gt;&lt;font style=&quot;font-size: 14px;&quot;&gt;F0/1&lt;/font&gt;&lt;/b&gt;" style="text;html=1;align=center;verticalAlign=middle;whiteSpace=wrap;rounded=0;" parent="1" vertex="1">
          <mxGeometry x="233.5" y="323.5" width="60" height="30" as="geometry" />
        </mxCell>
        <mxCell id="FiaJFKsjIP4AauUNehaB-2" value="" style="group" parent="1" vertex="1" connectable="0">
          <mxGeometry x="280" y="300.5" width="101" height="53" as="geometry" />
        </mxCell>
        <mxCell id="2piaRRsvQxlYRXwN0LXb-2" value="" style="shape=mxgraph.cisco.switches.workgroup_switch;sketch=0;html=1;pointerEvents=1;dashed=0;fillColor=#036897;strokeColor=#ffffff;strokeWidth=2;verticalLabelPosition=bottom;verticalAlign=top;align=center;outlineConnect=0;" parent="FiaJFKsjIP4AauUNehaB-2" vertex="1">
          <mxGeometry width="101" height="50" as="geometry" />
        </mxCell>
        <mxCell id="2piaRRsvQxlYRXwN0LXb-3" value="&lt;b&gt;&lt;font color=&quot;#ffffff&quot; style=&quot;font-size: 14px;&quot;&gt;S1&lt;/font&gt;&lt;/b&gt;" style="text;html=1;align=center;verticalAlign=middle;whiteSpace=wrap;rounded=0;" parent="FiaJFKsjIP4AauUNehaB-2" vertex="1">
          <mxGeometry x="11.5" y="21" width="60" height="30" as="geometry" />
        </mxCell>
        <mxCell id="FiaJFKsjIP4AauUNehaB-3" value="" style="group" parent="1" vertex="1" connectable="0">
          <mxGeometry x="610" y="299" width="78" height="58" as="geometry" />
        </mxCell>
        <mxCell id="FiaJFKsjIP4AauUNehaB-4" value="" style="shape=mxgraph.cisco.routers.router;sketch=0;html=1;pointerEvents=1;dashed=0;fillColor=#036897;strokeColor=#ffffff;strokeWidth=2;verticalLabelPosition=bottom;verticalAlign=top;align=center;outlineConnect=0;" parent="FiaJFKsjIP4AauUNehaB-3" vertex="1">
          <mxGeometry width="78" height="53.929824561403514" as="geometry" />
        </mxCell>
        <mxCell id="FiaJFKsjIP4AauUNehaB-5" value="&lt;b&gt;&lt;font color=&quot;#ffffff&quot; style=&quot;font-size: 14px;&quot;&gt;R2&lt;/font&gt;&lt;/b&gt;" style="text;html=1;align=center;verticalAlign=middle;whiteSpace=wrap;rounded=0;" parent="FiaJFKsjIP4AauUNehaB-3" vertex="1">
          <mxGeometry x="9" y="27.47368421052632" width="60" height="30.526315789473685" as="geometry" />
        </mxCell>
        <mxCell id="FiaJFKsjIP4AauUNehaB-6" value="&lt;b&gt;&lt;font style=&quot;font-size: 14px;&quot;&gt;G/0/0/0&lt;/font&gt;&lt;/b&gt;" style="text;html=1;align=center;verticalAlign=middle;whiteSpace=wrap;rounded=0;" parent="1" vertex="1">
          <mxGeometry x="523" y="299" width="60" height="34" as="geometry" />
        </mxCell>
        <mxCell id="FiaJFKsjIP4AauUNehaB-7" value="" style="endArrow=none;html=1;rounded=0;strokeWidth=3;entryX=0.98;entryY=0.5;entryDx=0;entryDy=0;entryPerimeter=0;exitX=-0.001;exitY=0.57;exitDx=0;exitDy=0;exitPerimeter=0;" parent="1" source="2piaRRsvQxlYRXwN0LXb-2" target="f9OrkrOD7GsaYfjVP4bd-2" edge="1">
          <mxGeometry width="50" height="50" relative="1" as="geometry">
            <mxPoint x="240" y="330" as="sourcePoint" />
            <mxPoint x="290" y="549.5" as="targetPoint" />
          </mxGeometry>
        </mxCell>
        <mxCell id="f9OrkrOD7GsaYfjVP4bd-11" value="" style="group" parent="1" vertex="1" connectable="0">
          <mxGeometry x="450" y="300" width="78" height="57" as="geometry" />
        </mxCell>
        <mxCell id="f9OrkrOD7GsaYfjVP4bd-3" value="" style="shape=mxgraph.cisco.routers.router;sketch=0;html=1;pointerEvents=1;dashed=0;fillColor=#036897;strokeColor=#ffffff;strokeWidth=2;verticalLabelPosition=bottom;verticalAlign=top;align=center;outlineConnect=0;" parent="f9OrkrOD7GsaYfjVP4bd-11" vertex="1">
          <mxGeometry y="-1" width="78" height="53" as="geometry" />
        </mxCell>
        <mxCell id="f9OrkrOD7GsaYfjVP4bd-10" value="&lt;b&gt;&lt;font color=&quot;#ffffff&quot; style=&quot;font-size: 14px;&quot;&gt;R1&lt;/font&gt;&lt;/b&gt;" style="text;html=1;align=center;verticalAlign=middle;whiteSpace=wrap;rounded=0;" parent="f9OrkrOD7GsaYfjVP4bd-11" vertex="1">
          <mxGeometry x="9" y="27" width="60" height="30" as="geometry" />
        </mxCell>
        <mxCell id="JP3OdNVqAxdgDJ0XusBN-3" value="" style="group" parent="1" vertex="1" connectable="0">
          <mxGeometry x="280" y="410" width="83" height="62" as="geometry" />
        </mxCell>
        <mxCell id="JP3OdNVqAxdgDJ0XusBN-1" value="" style="shape=mxgraph.cisco.computers_and_peripherals.workstation;sketch=0;html=1;pointerEvents=1;dashed=0;fillColor=#036897;strokeColor=#ffffff;strokeWidth=2;verticalLabelPosition=bottom;verticalAlign=top;align=center;outlineConnect=0;" parent="JP3OdNVqAxdgDJ0XusBN-3" vertex="1">
          <mxGeometry width="83" height="62" as="geometry" />
        </mxCell>
        <mxCell id="JP3OdNVqAxdgDJ0XusBN-2" value="&lt;b&gt;&lt;font style=&quot;font-size: 14px; color: light-dark(rgb(0, 0, 0), rgb(18, 18, 18));&quot;&gt;PC-A&lt;/font&gt;&lt;/b&gt;" style="text;html=1;align=center;verticalAlign=middle;whiteSpace=wrap;rounded=0;" parent="JP3OdNVqAxdgDJ0XusBN-3" vertex="1">
          <mxGeometry x="1" y="7" width="60" height="30" as="geometry" />
        </mxCell>
        <mxCell id="JP3OdNVqAxdgDJ0XusBN-4" value="" style="group" parent="1" vertex="1" connectable="0">
          <mxGeometry x="102.5" y="410" width="83" height="62" as="geometry" />
        </mxCell>
        <mxCell id="JP3OdNVqAxdgDJ0XusBN-5" value="" style="shape=mxgraph.cisco.computers_and_peripherals.workstation;sketch=0;html=1;pointerEvents=1;dashed=0;fillColor=#036897;strokeColor=#ffffff;strokeWidth=2;verticalLabelPosition=bottom;verticalAlign=top;align=center;outlineConnect=0;" parent="JP3OdNVqAxdgDJ0XusBN-4" vertex="1">
          <mxGeometry width="83" height="62" as="geometry" />
        </mxCell>
        <mxCell id="JP3OdNVqAxdgDJ0XusBN-6" value="&lt;b&gt;&lt;font style=&quot;font-size: 14px; color: light-dark(rgb(0, 0, 0), rgb(18, 18, 18));&quot;&gt;PC-B&lt;/font&gt;&lt;/b&gt;" style="text;html=1;align=center;verticalAlign=middle;whiteSpace=wrap;rounded=0;" parent="JP3OdNVqAxdgDJ0XusBN-4" vertex="1">
          <mxGeometry x="1" y="7" width="60" height="30" as="geometry" />
        </mxCell>
        <mxCell id="JP3OdNVqAxdgDJ0XusBN-7" value="" style="endArrow=none;html=1;rounded=0;entryX=0.5;entryY=1;entryDx=0;entryDy=0;strokeWidth=3;exitX=0.5;exitY=0;exitDx=0;exitDy=0;exitPerimeter=0;" parent="1" source="JP3OdNVqAxdgDJ0XusBN-1" target="2piaRRsvQxlYRXwN0LXb-3" edge="1">
          <mxGeometry width="50" height="50" relative="1" as="geometry">
            <mxPoint x="342.5" y="385.5" as="sourcePoint" />
            <mxPoint x="412.5" y="385.5" as="targetPoint" />
          </mxGeometry>
        </mxCell>
        <mxCell id="JP3OdNVqAxdgDJ0XusBN-9" value="" style="endArrow=none;html=1;rounded=0;entryX=0.5;entryY=1;entryDx=0;entryDy=0;strokeWidth=3;exitX=0.5;exitY=0;exitDx=0;exitDy=0;exitPerimeter=0;" parent="1" source="JP3OdNVqAxdgDJ0XusBN-5" target="f9OrkrOD7GsaYfjVP4bd-8" edge="1">
          <mxGeometry width="50" height="50" relative="1" as="geometry">
            <mxPoint x="205" y="408.5" as="sourcePoint" />
            <mxPoint x="205" y="356.5" as="targetPoint" />
          </mxGeometry>
        </mxCell>
        <mxCell id="JP3OdNVqAxdgDJ0XusBN-10" value="&lt;b&gt;&lt;font style=&quot;font-size: 14px;&quot;&gt;F0/6&lt;/font&gt;&lt;/b&gt;" style="text;html=1;align=center;verticalAlign=middle;whiteSpace=wrap;rounded=0;" parent="1" vertex="1">
          <mxGeometry x="272.5" y="343" width="60" height="30" as="geometry" />
        </mxCell>
        <mxCell id="JP3OdNVqAxdgDJ0XusBN-11" value="&lt;b&gt;&lt;font style=&quot;font-size: 14px;&quot;&gt;F0/18&lt;/font&gt;&lt;/b&gt;" style="text;html=1;align=center;verticalAlign=middle;whiteSpace=wrap;rounded=0;" parent="1" vertex="1">
          <mxGeometry x="93" y="346" width="60" height="30" as="geometry" />
        </mxCell>
        <mxCell id="FiaJFKsjIP4AauUNehaB-12" value="&lt;b&gt;&lt;font style=&quot;font-size: 14px;&quot;&gt;Lo1&lt;/font&gt;&lt;/b&gt;" style="text;html=1;align=center;verticalAlign=middle;whiteSpace=wrap;rounded=0;direction=south;" parent="1" vertex="1">
          <mxGeometry x="707" y="317" width="30" height="20" as="geometry" />
        </mxCell>
        <mxCell id="ukNMzgM1h5LQeHG4loEU-2" value="" style="group" vertex="1" connectable="0" parent="1">
          <mxGeometry x="687" y="319" width="20" height="17" as="geometry" />
        </mxCell>
        <mxCell id="FiaJFKsjIP4AauUNehaB-10" value="" style="endArrow=none;html=1;rounded=0;strokeWidth=3;" parent="ukNMzgM1h5LQeHG4loEU-2" edge="1">
          <mxGeometry width="50" height="50" relative="1" as="geometry">
            <mxPoint x="20" as="sourcePoint" />
            <mxPoint x="20" y="17" as="targetPoint" />
          </mxGeometry>
        </mxCell>
        <mxCell id="FiaJFKsjIP4AauUNehaB-11" value="" style="endArrow=none;html=1;rounded=0;strokeWidth=3;" parent="ukNMzgM1h5LQeHG4loEU-2" edge="1">
          <mxGeometry width="50" height="50" relative="1" as="geometry">
            <mxPoint x="20" y="8" as="sourcePoint" />
            <mxPoint y="8" as="targetPoint" />
          </mxGeometry>
        </mxCell>
        <mxCell id="ukNMzgM1h5LQeHG4loEU-3" value="&lt;b&gt;&lt;font style=&quot;font-size: 14px;&quot;&gt;G/0/0/0&lt;/font&gt;&lt;/b&gt;" style="text;html=1;align=center;verticalAlign=middle;whiteSpace=wrap;rounded=0;" vertex="1" parent="1">
          <mxGeometry x="555" y="318.5" width="60" height="34" as="geometry" />
        </mxCell>
      </root>
    </mxGraphModel>
  </diagram>
</mxfile>
